<?xml version="1.0" encoding="UTF-8"?>
<svg id="Layer_1" data-name="Layer 1" xmlns="http://www.w3.org/2000/svg" viewBox="0 0 30.45 27.75">
  <defs>
    <style>
      .cls-1 {
        fill: #fff;
      }
    </style>
  </defs>
  <path class="cls-1" d="M17.85,0c-.62,0-1.21.25-1.65.66-.44.41-.75.95-.99,1.59-.43,1.15-.6,2.64-.64,4.38-3.17.1-6.09.92-8.42,2.27-.7-.66-1.6-.99-2.5-.99s-1.87.36-2.58,1.07c-1.43,1.43-1.43,3.73,0,5.16l.17.17c-.35.91-.56,1.87-.56,2.87,0,2.99,1.7,5.67,4.34,7.56,2.64,1.88,6.24,3.01,10.2,3.01s7.56-1.13,10.2-3.01,4.34-4.57,4.34-7.56c0-1-.21-1.96-.56-2.87l.17-.17c1.43-1.43,1.43-3.73,0-5.16-.71-.71-1.65-1.07-2.58-1.07s-1.79.33-2.5.99c-2.33-1.34-5.23-2.17-8.38-2.27.04-1.64.22-3.01.56-3.92.19-.51.43-.88.66-1.09s.44-.29.74-.29.45.08.68.27.5.49.85.85c.62.64,1.57,1.34,3.16,1.49.29,1.52,1.64,2.68,3.24,2.68,1.82,0,3.3-1.49,3.3-3.3S27.61.02,25.8.02c-1.58,0-2.92,1.13-3.24,2.62-1.18-.11-1.7-.57-2.21-1.09-.3-.3-.57-.66-.95-.97S18.49.02,17.87.02l-.02-.02ZM25.78,1.32c1.1,0,1.98.88,1.98,1.98s-.88,1.98-1.98,1.98-1.98-.88-1.98-1.98.88-1.98,1.98-1.98ZM15.21,7.93c3.71,0,7.05,1.07,9.44,2.77s3.78,3.99,3.78,6.48-1.4,4.78-3.78,6.48-5.73,2.77-9.44,2.77-7.05-1.07-9.44-2.77c-2.38-1.7-3.78-3.99-3.78-6.48s1.4-4.78,3.78-6.48c2.38-1.7,5.73-2.77,9.44-2.77ZM3.65,9.21c.46,0,.93.14,1.34.43-1.32.95-2.41,2.1-3.16,3.39-.77-.94-.72-2.23.17-3.12.47-.47,1.06-.7,1.65-.7ZM26.78,9.21c.59,0,1.18.23,1.65.7.89.89.94,2.18.17,3.12-.75-1.29-1.84-2.44-3.16-3.39.41-.29.88-.43,1.34-.43ZM9.93,12.56c-1.45,0-2.64,1.19-2.64,2.64s1.19,2.64,2.64,2.64,2.64-1.19,2.64-2.64-1.19-2.64-2.64-2.64ZM20.5,12.56c-1.45,0-2.64,1.19-2.64,2.64s1.19,2.64,2.64,2.64,2.64-1.19,2.64-2.64-1.19-2.64-2.64-2.64ZM9.93,13.88c.74,0,1.32.58,1.32,1.32s-.58,1.32-1.32,1.32-1.32-.58-1.32-1.32.58-1.32,1.32-1.32ZM20.5,13.88c.74,0,1.32.58,1.32,1.32s-.58,1.32-1.32,1.32-1.32-.58-1.32-1.32.58-1.32,1.32-1.32ZM21.26,20.38s-.07.01-.1.02c-.21.04-.38.18-.47.37,0,0-.35.48-1.22,1.03s-2.23,1.12-4.25,1.12-3.38-.56-4.25-1.12-1.22-1.03-1.22-1.03c-.15-.23-.43-.35-.7-.29-.21.05-.39.21-.46.42-.07.21-.04.44.09.61,0,0,.51.73,1.57,1.4s2.7,1.32,4.98,1.32,3.92-.65,4.98-1.32,1.57-1.4,1.57-1.4c.2-.19.26-.49.15-.74s-.37-.41-.64-.39h-.03Z"/>
</svg>