<?xml version="1.0" encoding="UTF-8"?>
<svg id="Layer_1" data-name="Layer 1" xmlns="http://www.w3.org/2000/svg" viewBox="0 0 512 512">
  <defs>
    <style>
      .cls-1 {
        fill: #fff;
      }
    </style>
  </defs>
  <path class="cls-1" d="M256,0C114.61,0,0,114.61,0,256s114.61,256,256,256,256-114.61,256-256S397.39,0,256,0ZM345.67,347.52c-4.06,6.02-12.22,7.61-18.24,3.55,0,0,0,0,0,0-70.98-47.85-178.97-19.9-180.05-19.61-7.01,1.87-14.21-2.31-16.08-9.32-1.87-7.01,2.31-14.21,9.32-16.08,1.22-.33,30.43-7.99,69.6-9.13,52.61-1.54,98.22,9.64,131.9,32.35,6.02,4.06,7.61,12.23,3.55,18.24,0,0,0,0,0,0ZM370.94,290.82c-4.66,7.48-14.5,9.76-21.98,5.09,0,0,0,0,0,0-47.7-29.75-100.79-34.88-136.92-33.93-39.91,1.04-68.69,9.48-68.98,9.57-8.44,2.53-17.33-2.26-19.87-10.7-2.53-8.44,2.26-17.33,10.7-19.87h0c1.3-.39,32.39-9.6,76.29-10.88,58.49-1.7,112.32,11.69,155.66,38.73,7.48,4.66,9.76,14.5,5.1,21.98,0,0,0,0,0,0h0ZM400.38,224.7c-5.02,9.36-16.68,12.88-26.05,7.85,0,0,0,0,0,0-58.76-31.54-120.64-36.55-162.2-35.2-45.74,1.49-77.79,10.78-78.1,10.88-10.19,3.02-20.9-2.78-23.92-12.97s2.78-20.9,12.97-23.92c1.45-.43,36.18-10.62,86.54-12.4,66.84-2.37,130.09,11.36,182.9,39.71,9.36,5.02,12.88,16.69,7.85,26.05Z"/>
</svg>