<?xml version="1.0" encoding="UTF-8"?>
<svg id="Layer_1" data-name="Layer 1" xmlns="http://www.w3.org/2000/svg" viewBox="0 0 42 42">
  <defs>
    <style>
      .cls-1 {
        fill: #fff;
      }
    </style>
  </defs>
  <path class="cls-1" d="M37,0H5C2.24,0,0,2.24,0,5v32c0,2.76,2.24,5,5,5h32c2.76,0,5-2.24,5-5V5c0-2.76-2.24-5-5-5ZM33.01,18.32c-.23.02-.46.03-.69.03-2.62,0-4.93-1.35-6.27-3.39v11.54c0,4.71-3.82,8.53-8.53,8.53s-8.53-3.82-8.53-8.53,3.82-8.53,8.53-8.53c.18,0,.35.02.53.03v4.2c-.17-.02-.35-.05-.53-.05-2.4,0-4.35,1.95-4.35,4.35s1.95,4.35,4.35,4.35,4.53-1.89,4.53-4.3c0-.09.04-19.59.04-19.59h4.02c.38,3.59,3.28,6.43,6.9,6.68v4.67Z"/>
</svg>