<?xml version="1.0" encoding="UTF-8"?>
<svg id="Layer_1" data-name="Layer 1" xmlns="http://www.w3.org/2000/svg" viewBox="0 0 43.1 32">
  <defs>
    <style>
      .cls-1 {
        fill: #fff;
      }
    </style>
  </defs>
  <path class="cls-1" d="M21.4,0C14.8,0,8.6.5,5.3,1.2,3.1,1.7,1.2,3.2.8,5.5c-.4,2.4-.8,6-.8,10.5s.4,8,.9,10.5c.4,2.2,2.3,3.8,4.5,4.3,3.5.7,9.5,1.2,16.1,1.2s12.6-.5,16.1-1.2c2.2-.5,4.1-2,4.5-4.3.4-2.5.9-6.1,1-10.6,0-4.5-.5-8.1-1-10.6-.4-2.2-2.3-3.8-4.5-4.3-3.5-.5-9.6-1-16.2-1ZM21.4,2c7.2,0,13,.6,15.8,1.1,1.5.4,2.7,1.4,2.9,2.7.6,3.2,1,6.6,1,10.1-.1,4.3-.6,7.8-1,10.3-.3,1.9-2.3,2.5-2.9,2.7-3.6.7-9.6,1.2-15.6,1.2s-12.1-.4-15.6-1.2c-1.5-.4-2.7-1.4-2.9-2.7-.8-2.8-1.1-6.5-1.1-10.2,0-4.6.4-8,.8-10.1.3-1.9,2.4-2.5,2.9-2.7,3.3-.7,9.4-1.2,15.7-1.2ZM16,8v16l14-8-14-8ZM18,11.4l8,4.6-8,4.6v-9.2Z"/>
</svg>