<svg xmlns="http://www.w3.org/2000/svg" viewBox="0 0 1498.92 430" class="icon-crush-music"><path d="M0 358c2.31.16 4.62.46 6.92.46 175.47.02 350.95.02 526.42.02h7.33v69.54c-1.75.08-3.52.23-5.28.23-176.81.01-353.61.01-530.42 0-1.66 0-3.32-.16-4.98-.25v-70zM164 0c6.21 1.01 12.47 1.79 18.62 3.07 41.33 8.59 72.61 30.43 90.81 69.34.92 1.96 1.71 3.98 2.52 5.98.24.61.35 1.27.65 2.41-18.29 10.1-36.61 20.23-55.4 30.61-.9-1.6-1.62-3.04-2.48-4.39-4.27-6.74-8.19-13.75-12.96-20.13-11.98-16.04-28.37-24.25-48.23-25.67-10.22-.73-20.32 0-30.12 3.21-17.51 5.76-29.55 17.71-37.26 34.05-3.03 6.43-4.84 13.43-7.13 20.2-.58 1.7-.9 3.48-1.38 5.39H8.59c.51-3.43.87-6.51 1.42-9.55 6-32.82 20.08-61.23 45.86-83.12 21.85-18.57 47.6-27.51 75.77-30.38C133.77.8 135.88.35 138 0h26zM704 430c-.11-.13-.2-.33-.33-.37-11.92-2.88-16.14-11.52-16.32-22.66-.25-15.33-.07-30.66-.05-45.99 0-.65.17-1.29.32-2.35h19.36v5.36c0 12-.02 24 .01 35.99 0 2.16.01 4.35.35 6.48.87 5.57 3.37 8.46 7.7 9.27 5.12.96 10.8-1.11 12.8-5.66 1.55-3.54 2.4-7.64 2.5-11.52.31-11.82.1-23.66.13-35.49 0-1.46.2-2.91.31-4.57h18.89v68.9h-18.84c-.23-2.88-.48-5.89-.72-8.91l-.78-.63c-3.68 6.63-9.67 9.89-16.33 12.15h-9zM792 430c-2.73-.7-5.49-1.29-8.17-2.12-8.89-2.74-14.68-8.64-17.9-17.87 4.94-2.01 9.67-3.94 14.89-6.07.84 1.68 1.58 3.28 2.41 4.83 4.12 7.77 13.13 11.14 21.32 7.99 2.85-1.1 4.84-3.01 5.15-6.15.28-2.86-1.46-4.81-3.77-5.97-2.95-1.48-6.09-2.63-9.2-3.77-5.46-1.99-11.17-3.43-16.41-5.88-8.79-4.11-12.02-10.26-11.31-19.69.63-8.32 5.72-14.59 14.41-17.21 8.32-2.5 16.76-2.67 25.1-.05 7.8 2.45 13.03 7.7 16.21 16.15-5.37 1.13-10.47 2.2-15.66 3.29-.93-1.6-1.63-2.9-2.42-4.14-3.72-5.84-11.9-7.99-18.05-4.75-4.81 2.53-5.14 6.9-.4 9.47 3.17 1.72 6.78 2.66 10.23 3.84 5.5 1.88 11.17 3.33 16.52 5.55 16.99 7.05 14.71 29.97 2.32 36.98-4.4 2.49-9.5 3.73-14.27 5.55h-11zM910 430c-.61-.25-1.2-.6-1.83-.75-17.14-3.93-26.83-14.94-27.9-32.35-.29-4.76.05-9.7.98-14.38 2.9-14.63 13.92-24.27 29.08-26.01 15.71-1.81 28.04 4.61 34.43 18.39-5.09 2.59-10.21 5.19-15.75 8.01-.86-1.77-1.59-3.36-2.38-4.91-2.42-4.72-6.21-7.21-11.62-7.15-5.45.06-9.34 2.67-11.34 7.53-3.92 9.48-3.95 19.19-.1 28.69 2.11 5.2 6.2 8.14 12.05 8.12 5.75-.02 9.18-3.28 11.46-8.16.55-1.18 1.07-2.38 1.8-4.01 5.34 2.73 10.47 5.34 16.02 8.18-3.96 8.34-9.71 14.08-18.27 16.84-2.19.71-4.41 1.33-6.62 2h-10zM1498.92 358.81v69.05H963.01v-69.05h535.91zM1075.43 305.18v-56.16c1.29-.34 2.66-.76 4.06-1.07 7.7-1.67 15.31-3.82 21.59-8.73 3.47-2.71 6.81-6.01 9.1-9.73 5.23-8.49 4.01-17.91-3.41-24.51-4.66-4.14-10.11-7.66-15.71-10.45-14.56-7.25-30.33-10.95-46.09-14.56-19.01-4.36-37.9-9.23-55.82-17.03-8.51-3.71-16.92-7.98-24.63-13.1-16.93-11.25-25.28-27.9-27.36-47.78-1.24-11.82-.75-23.63 2.36-35.21 6.26-23.33 21.11-39.62 41.9-50.98 13.78-7.53 28.69-11.48 44.15-13.59.46-.06.96.15 1.72.28v54.56c-1.71.66-3.4 1.29-5.08 1.95-5.51 2.15-10.5 5.1-14.27 9.77-6.3 7.8-5.9 17.13 1.75 23.53 4.54 3.8 9.68 7.38 15.17 9.43 13.23 4.93 26.75 9.14 40.28 13.2 18.49 5.53 37.28 10.11 55.59 16.16 9.55 3.16 18.68 8.03 27.39 13.15 21.59 12.68 32.53 32.27 34.74 56.91 1.03 11.51.63 22.97-2.31 34.24-5.55 21.24-18.42 37.01-36.55 48.8-17.55 11.41-37.13 16.97-57.65 19.74-3.44.47-6.91.76-10.94 1.19zM442.15 7.05c9.63 0 19.09-.33 28.52.07 16.86.72 33.51 3.08 49.5 8.78 4.69 1.67 9.32 3.63 13.76 5.89 23.02 11.73 35.82 30.67 38.92 56.19 1.33 10.98 1.11 21.97-1.28 32.81-5.73 26.03-21.61 43.34-46.17 52.93-5.09 1.99-10.44 3.35-16.5 5.26 25.3 43.26 50.53 86.41 76.11 130.16h-76.19c-.7-1.12-1.69-2.63-2.59-4.2-20.66-35.95-41.3-71.92-62.01-107.84-1.72-2.98-2.61-5.93-2.58-9.42.14-15.66.06-31.32.06-46.98v-5.79c2.38 0 4.48.17 6.55-.03 9.76-.92 19.68-1.1 29.22-3.09 22.93-4.79 26.01-22.57 23.3-37.6-1.65-9.15-7.82-14.82-16.28-18.1-9.14-3.54-18.76-4.45-28.43-4.93-4.47-.22-8.96-.04-13.9-.04V7.05zM1353.89 175.92v-55.5h70.44V6.94h69.27v292.33h-69.05V175.92h-70.66zM627.68 6.93h69.03v6.62c0 58.5-.08 117 .1 175.49.02 6.94.8 14.01 2.32 20.77 3.2 14.19 11.85 23.96 25.78 28.77 1.08.37 2.13.84 3.39 1.35V305c-5.02-.67-9.75-1.2-14.45-1.96-11.73-1.88-23.11-5-33.94-9.95-29.59-13.53-46.12-36.8-50.81-68.69-.94-6.4-1.35-12.94-1.36-19.42-.1-64-.06-128-.06-191.99V6.91zM805.89 6.93h69.02v4.99c0 63.81.01 127.63-.01 191.44 0 12.22-1.32 24.28-4.88 36.02-6.48 21.39-19.37 37.73-38.68 48.96-16.87 9.81-35.35 14.22-54.92 16.34V239.3c.4-.26.91-.74 1.5-.95 17.02-6.19 24.77-19.33 27-36.4.71-5.43.94-10.96.94-16.45.06-57.48.04-114.97.04-172.45V6.94zM1305.58 299.34h-68.42V7.07h68.42v292.27zM326.22 6.92h67.43v292.24h-67.43V6.92zM226.43 196.13c18.12 12.27 35.72 24.21 53.55 36.29-22.42 36.03-51.47 62.43-94.15 70.43-28.78 5.39-57.53 5.06-85.38-4.51-47.3-16.27-75.75-50.16-88.32-97.93-2.36-8.95-3.44-18.24-5.22-27.95h73.43c.84 3.79 1.62 7.67 2.57 11.5 3.43 13.83 9.68 26.21 19.48 36.64 21.43 22.81 56.38 28.16 84.49 12.99 14.06-7.59 25.09-18.56 34.74-31.08 1.51-1.96 2.98-3.96 4.79-6.38zM920.43 231.21c15.31-12.95 30.16-25.49 45.46-38.43 6.56 12.88 14.28 24.43 24.78 33.9 10.57 9.53 22.86 15.92 36.65 19.84v58.34c-7.71-1.34-15.08-2.33-22.33-3.93-23.38-5.16-44.42-14.88-61.27-32.44-10.27-10.7-17.81-23.08-23.29-37.28z"></path><path d="M1135.69 98.87c-14.91-21.97-34.59-36.41-60.23-42.32V2.48c30.27-3.81 85.49 28.2 102.66 59.58l-42.43 36.81zM622.49 370.81c1.16-1.7 2.06-3.07 3-4.41 6.45-9.19 17.72-12.81 28.29-9.08 5.59 1.98 9.28 5.96 10.9 11.53 1.01 3.47 1.62 7.19 1.66 10.8.18 14.82.09 29.65.07 44.48 0 .98-.21 1.96-.36 3.28h-18.91c-.09-1.73-.27-3.47-.27-5.22-.02-12.16 0-24.32-.03-36.48 0-2.16-.07-4.34-.43-6.46-.95-5.67-3.39-8.47-7.73-9.2-5.6-.94-10.99 1.13-13.05 6.05-1.5 3.58-2.27 7.68-2.38 11.58-.3 11.32-.11 22.65-.11 33.98v5.77h-19.15c-.09-1.82-.26-3.58-.26-5.34-.02-11.66.02-23.32-.04-34.98-.01-2.66-.16-5.34-.54-7.96-.78-5.4-3.16-8.24-7.23-9.06-5.27-1.06-10.81.78-12.93 5.32-1.64 3.5-2.62 7.59-2.74 11.45-.35 11.65-.13 23.32-.13 34.98v5.65h-19.2v-68.82h18.98v8.9c.32.25.65.49.97.74 3.26-4.96 7.13-9.15 12.77-10.96 5.9-1.9 11.79-1.88 17.63.32 5.96 2.25 8.87 7.21 11.2 13.16zM844.03 358.46h19.16v68.97h-19.16v-68.97zM863.39 327.67v17.35h-19.33v-17.35h19.33z"></path></svg>