<?xml version="1.0" encoding="UTF-8"?>
<svg id="Layer_1" data-name="Layer 1" xmlns="http://www.w3.org/2000/svg" viewBox="0 0 916.7 270.55">
  <defs>
    <style>
      .cls-1 {
        fill: #fff;
      }
    </style>
  </defs>
  <path class="cls-1" d="M575.17,86.53c-16.88,16.34-33.37,32.31-49.84,48.25-22.52-19.94-35.49-64.04-8.08-101.22,26.85-36.42,75.21-44.32,110.65-18.17,21.66,15.98,32.44,37.45,32.16,64.36-.28,26.51-12.12,47.55-31.8,64.8.2.32.39.63.59.95h5.23c28.16,0,56.33-.03,84.49.04,3.35,0,6.7.49,11.27.84-5.1,14.07-9.77,26.96-14.65,40.44,2.08,0,3.65.08,5.21,0,19.29-1.14,38.59-2.3,57.88-3.45.67-.04,1.33-.07,2-.09,5.34-.12,6.41,1.23,4.68,6.17-2.14,6.13-4.4,12.22-6.58,18.33-.55,1.55-1.02,3.13-1.77,5.41,46.97,2.12,140.09,6.28,140.09,6.28l-201.72,51.09s10.55-28.16,15.91-42.45c-1.86.3-3.25.44-4.59.76-25.9,6.25-51.78,12.54-77.69,18.72-1.64.39-4.48.62-4.97-.17-.84-1.36-.74-3.76-.2-5.45,2.7-8.37,5.68-16.65,8.81-25.69h-202.21c2.1-2.11,3.39-3.48,4.75-4.76,37.59-35.43,75.21-70.83,112.76-106.29,5.93-5.6,11.61-11.48,17.39-17.25.94-.94,1.87-1.92,2.68-2.96,3.04-3.9,2.92-8.45-.24-11.82-3.15-3.36-8.13-3.8-11.79-1.03-3.66,2.77-4.55,7.35-2.23,11.61.47.85,1.07,1.63,1.83,2.77h-.02Z"/>
  <path class="cls-1" d="M311.54,221.64V8.3c1.79-.09,3.39-.24,5-.25,24.99-.02,49.98-.09,74.96,0,53.23.2,99.13,41.87,104.58,94.82,6.01,58.48-33.27,109.2-91.47,118.01-4.6.7-9.29,1.01-13.94,1.03-24.82.1-49.64.05-74.46.03-1.46,0-2.91-.18-4.67-.3ZM382.12,150.99c16.98,1.47,30.66-3.38,39.09-18.24,7.6-13.4,6.69-26.99-2.43-39.43-9.01-12.3-21.76-16-36.66-14.44v72.1h0ZM0,8.32c1.76-.11,3.06-.26,4.36-.26,25.67-.01,51.35-.66,76.99.14,38.93,1.21,68.47,19.36,89.11,52.23.7,1.12,1.23,2.34,2,3.81-8.08,15.9-12.29,32.91-12.24,50.85.05,17.77,4.14,34.65,12.34,50.6-9.74,17.81-23.21,31.74-40.62,41.86-16.35,9.51-34.04,14.27-52.91,14.38-24.67.14-49.33.04-74,.02-1.62,0-3.24-.16-5.03-.25V8.32h0ZM70.94,151.03c17.55,1.43,31.35-3.96,39.5-19.46,7.07-13.45,5.69-26.88-3.61-38.93-9.04-11.71-21.47-15.29-35.88-13.74v72.13h0Z"/>
  <path class="cls-1" d="M298.56,78.56c-9.13,0-17.93-.05-26.72.01-10.88.08-20.32,3.83-27.51,12.06-9.86,11.29-12.36,24.27-6.54,38.15,5.89,14.05,17,21.48,32.16,22.34,7.81.44,15.66.09,23.49.12,1.62,0,3.25.14,5.15.23v69.57c-.25.21-.49.6-.74.6-17.79.37-35.61,1.46-53.15-3.02-44.19-11.29-76.35-49.24-80.1-94.7-4.78-57.83,36.49-108.65,94.29-115.17,12.96-1.46,26.22-.21,39.67-.21v70.02h0Z"/>
</svg>