<?xml version="1.0" encoding="UTF-8"?>
<svg id="Layer_1" data-name="Layer 1" xmlns="http://www.w3.org/2000/svg" viewBox="0 0 855.58 80">
  <defs>
    <style>
      .cls-1 {
        fill: #fff;
      }
    </style>
  </defs>
  <path class="cls-1" d="M711.79,69.62h-9.11c-5.47-15.21-10.92-30.38-16.38-45.54l-.73.15v45.28h-10.08V8.54h15.18c5.46,15.48,10.92,30.99,16.39,46.49l.86.18c5.36-15.55,10.71-31.09,16.12-46.79h15.01v61.13h-10.03V24.54l-.95-.18c-5.42,15.06-10.83,30.11-16.29,45.26h.01ZM378.35,69.56V8.52c1.06-.12,2.03-.31,2.99-.31,7.86-.02,15.72-.09,23.58,0,15.41.18,25.26,8.81,27.3,24.09.93,6.97.63,13.92-1.9,20.62-3.77,9.99-10.99,15.85-21.58,16.55-9.22.62-18.5.26-27.75.32-.74,0-1.48-.13-2.64-.24h0ZM392.05,58.16c5.05,0,9.75.39,14.36-.1,5.47-.58,9.35-3.8,11.12-9.12,2.33-6.98,2.13-14.01-.58-20.83-1.41-3.56-4.16-6-7.87-7.24-5.55-1.85-11.2-1.09-17.03-1.05v38.33h0ZM322.58,69.44V8.45h45.63v11.18h-32.06v13.1h29.29v10.56h-29.27v15.04h32.74v11.13h-46.34v-.02ZM215.68,8.32h45.65v11.24h-31.85v13.01h29.08v10.72h-29.09v14.98h32.45v11.2h-46.24V8.32h0ZM151.77,8.36h13.38v36.77c0,1.27-.02,2.54.06,3.8.4,6.44,3.35,9.81,9.73,10.57,2.59.31,5.31.1,7.9-.33,3.39-.57,5.74-2.74,6.58-6.11.55-2.19.86-4.49.88-6.75.09-11.16.04-22.32.04-33.48v-4.37h13.49c.08,1.06.22,2.15.22,3.24,0,11.29.03,22.57-.02,33.86,0,2.02-.17,4.06-.45,6.06-1.4,10.01-6.96,16.33-16.86,18.68-6.28,1.49-12.56,1.42-18.82-.17-9.44-2.39-15.44-8.58-15.94-18.07-.76-14.39-.2-28.84-.2-43.71h.01ZM855.57,69.59h-11.38c-8.95-14.45-18.05-29.15-27.15-43.85-.23.05-.46.1-.68.15v43.91h-10.12V8.42h11.19c8.92,14.37,18.02,29.05,27.13,43.73l.85-.21V8.4h10.17v61.2h0ZM608.98,69.61h-11.57c-.37-2.21-.84-4.5-1.11-6.8-.41-3.64-.4-7.36-1.09-10.95-.82-4.31-3.59-6.82-7.88-7.01-6.19-.28-12.4-.07-18.99-.07v24.69h-10.86V8.48c1.09-.1,2.17-.27,3.25-.28,8.76-.02,17.51-.15,26.26.07,3.37.08,6.85.58,10.06,1.59,5.85,1.84,9.26,6.11,9.93,12.24.73,6.67-.54,12.67-6.61,16.71-.62.41-1.25.8-2.13,1.37.54.44.85.82,1.25,1,4.67,2.06,6.44,6.04,6.54,10.73.14,5.96.41,11.85,2.93,17.7h.02ZM568.33,36.06c6.53,0,12.71.2,18.87-.06,6.19-.26,9.3-3.99,9.08-10.22-.19-5.52-3.34-8.47-9.4-8.59-5.31-.1-10.62-.05-15.93-.03-.83,0-1.66.25-2.62.4v18.5ZM752.36,8.4h43.7v9.04h-32.81v15.97h30.22v9.12h-30.29v17.8h33.76v9.15h-44.59V8.4h.01ZM443,8.56c10.93,0,21.58-.36,32.19.13,7.03.33,11.62,4.77,13.03,10.86,1.59,6.89-.51,12.21-6.5,16.48-.38.27-.71.63-1.05.95.26.31.37.59.57.67,7.77,3.42,10.82,8.61,9.86,16.8-.88,7.54-6.27,13.44-13.7,14.88-1.61.31-3.27.45-4.91.46-8.75.05-17.5.03-26.25.02-.99,0-1.98-.13-3.25-.21V8.56h.01ZM451.23,62.47c8.02,0,15.85.36,23.62-.14,4.42-.29,7.31-4.15,7.92-8.56.92-6.71-2.62-11.35-9.66-11.8-6.56-.42-13.17-.22-19.76-.25-.7,0-1.4.26-2.11.4v20.35h-.01ZM451.3,15.69v19.28c7.35-.31,14.43-.27,21.43-1,5.16-.54,7.51-3.8,7.62-8.84.12-5.39-1.98-8.8-7.36-9.28-7.11-.64-14.31-.16-21.7-.16h.01ZM114.41,19.6v14.04h25.37v10.6h-25.42v25.28h-13.5V8.53h42.85v11.08h-29.3ZM634.37,8.34h11.71l23.54,61.17h-11.63c-1.85-5.12-3.74-10.34-5.69-15.73h-24.49c-1.87,5.21-3.71,10.32-5.65,15.69h-11.2c7.87-20.55,15.63-40.83,23.4-61.13h.01ZM640.55,19.84c-.24-.08-.49-.15-.73-.23-2.91,8.31-5.82,16.62-8.85,25.24h18.25c-2.98-8.59-5.83-16.8-8.68-25.01h0ZM271.5,8.37h13.23v49.97h29.84v11.17h-43.08V8.37h.01ZM541.25,8.41h9.33c-1.77,2.83-3.27,5.28-4.83,7.7-5.57,8.63-11.23,17.19-16.66,25.9-1.07,1.71-1.71,3.95-1.79,5.97-.23,5.82-.07,11.66-.06,17.5v4.05h-8.23c0-2.58.01-5.07,0-7.56-.04-5.7,1.07-11.74-.46-17.01-1.49-5.13-5.65-9.49-8.68-14.17-4.14-6.38-8.33-12.73-12.48-19.1-.6-.92-1.09-1.92-1.83-3.24h9.61c5.93,9.39,11.93,18.87,18.25,28.88,6.19-10.04,12.03-19.49,17.84-28.91h-.01ZM.04,40.97h5.23c.48,10.99,4.76,20.09,13.73,26.66,6.67,4.89,14.23,7.12,22.45,7.07,6.06-.04,11.79-1.54,17.16-4.35,5.5-2.89,9.88-7.02,13.24-12.25,3.29-5.12,4.6-10.87,4.99-17.07h5.43c-.42,3.12-.5,6.13-1.27,8.96-4.31,15.86-15.01,25.48-30.7,28.84-16.95,3.63-31.72-1.18-42.93-14.76C2.04,57.64-.34,49.94.04,40.97ZM18.76.08h5.13c-1.94,2.33-3.43,4.14-4.95,5.93-3.59,4.23-3.79,6.41-1.02,11.31.87,1.54,1.8,3.06,2.63,4.63,2.42,4.57,2.39,7.78-.04,12.57h-4.68c.41-1.52,1.04-2.73.97-3.9-.16-2.58-.36-5.23-1.13-7.67-.67-2.13-2.07-4.04-3.26-5.98-2.28-3.73-1.98-7.2.83-10.49,1.8-2.11,3.63-4.21,5.52-6.4ZM67.16,34.56h-4.49c.27-1.19.47-2.15.71-3.1.83-3.22.4-6.26-1.24-9.15-1.18-2.09-2.42-4.14-3.51-6.28-1.66-3.24-1.35-6.38.99-9.18,1.94-2.32,4-4.54,6.04-6.85h4.89c-1.61,2-2.79,3.55-4.06,5.02-4.57,5.28-4.79,7.89-1.08,13.9.53.86,1.08,1.71,1.61,2.57,2.57,4.22,3.04,8.49.16,13.06h-.02ZM44.75,34.55h-4.09c-.11-.31-.22-.46-.19-.55,2.62-6.08.37-11.24-2.81-16.39-3.36-5.45-2.92-8.21,1.35-12.91,1.36-1.5,2.66-3.05,4.08-4.68h5c-1.89,2.27-3.35,4.14-4.93,5.89-3.06,3.41-3.21,6.97-.85,10.8,1.19,1.94,2.35,3.92,3.31,5.98,2,4.28,1.76,7.25-.88,11.85h.01Z"/>
</svg>